<svg version="1.1" id="Layer_1" xmlns="http://www.w3.org/2000/svg" xmlns:xlink="http://www.w3.org/1999/xlink" x="0px" y="0px" viewBox="347.5701492537313 274.86719999999997 595.1426865671641 438.23040000000003" style="max-height: 500px" xml:space="preserve" width="595.1426865671641" height="438.23040000000003">
<rect data-darkreader-inline-fill="" x="783.881" y="426.601" style="fill: none; --darkreader-inline-fill: none;" width="30.467" height="30.467"/>
<rect data-darkreader-inline-fill="" x="836.742" y="309.824" style="fill: none; --darkreader-inline-fill: none;" width="30.467" height="30.467"/>
<rect data-darkreader-inline-fill="" x="882.487" y="539.103" style="fill: none; --darkreader-inline-fill: none;" width="30.467" height="30.467"/>
<rect data-darkreader-inline-fill="" x="783.881" y="646.436" style="fill: none; --darkreader-inline-fill: none;" width="30.467" height="30.467"/>
<path data-darkreader-inline-fill="" style="fill: rgb(255, 255, 255); --darkreader-inline-fill: #e8e6e3;" d="M321.451,804.033h-25.453v64.993h25.453c21.513,0,32.27-11.421,32.27-34.268&#10;&#9;C353.721,814.276,342.964,804.033,321.451,804.033z M321.451,858.573h-13.409v-44.086h13.409c13.483,0,20.226,6.756,20.226,20.272&#10;&#9;C341.677,850.635,334.934,858.573,321.451,858.573z"/>
<rect data-darkreader-inline-fill="" x="363.947" y="804.033" style="fill: rgb(255, 255, 255); --darkreader-inline-fill: #e8e6e3;" width="12.044" height="64.993"/>
<path data-darkreader-inline-fill="" style="fill: rgb(255, 255, 255); --darkreader-inline-fill: #e8e6e3;" d="M423.258,814.032c6.516,0,12.576,1.212,18.181,3.635v-10.908c-5.606-2.12-11.97-3.18-19.09-3.18&#10;&#9;c-23.33,0-34.996,10.679-34.996,32.041c0,22.577,11.468,33.862,34.405,33.862c7.879,0,14.437-1.153,19.681-3.454v-26.998h-12.044&#10;&#9;v18.909c-2.789,0.728-5.273,1.09-7.454,1.09c-14.726,0-22.089-7.801-22.089-23.408C399.852,821.228,407.653,814.032,423.258,814.032&#10;&#9;z"/>
<rect data-darkreader-inline-fill="" x="452.801" y="804.033" style="fill: rgb(255, 255, 255); --darkreader-inline-fill: #e8e6e3;" width="12.044" height="64.993"/>
<polygon data-darkreader-inline-fill="" style="fill: rgb(255, 255, 255); --darkreader-inline-fill: #e8e6e3;" points="502.343,869.026 502.343,814.487 520.977,814.487 520.977,804.033 471.664,804.033 &#10;&#9;471.664,814.487 490.297,814.487 490.297,869.026"/>
<polygon data-darkreader-inline-fill="" style="fill: rgb(255, 255, 255); --darkreader-inline-fill: #e8e6e3;" points="559.291,840.846 546.202,840.846 542.067,851.299 563.656,851.299 571.063,869.026 &#10;&#9;584.016,869.026 555.837,804.033 542.885,804.033 515.295,869.026 527.659,869.026 549.065,816.441"/>
<polygon data-darkreader-inline-fill="" style="fill: rgb(255, 255, 255); --darkreader-inline-fill: #e8e6e3;" points="629.829,858.573 604.013,858.573 604.013,804.033 591.969,804.033 591.969,869.026 &#10;&#9;629.829,869.026"/>
<rect data-darkreader-inline-fill="" x="661.644" y="804.033" style="fill: rgb(255, 255, 255); --darkreader-inline-fill: #e8e6e3;" width="12.044" height="64.993"/>
<path data-darkreader-inline-fill="" style="fill: rgb(255, 255, 255); --darkreader-inline-fill: #e8e6e3;" d="M712.775,804.033h-25.452v64.993h25.452c21.513,0,32.27-11.421,32.27-34.268&#10;&#9;C745.044,814.276,734.288,804.033,712.775,804.033z M712.775,858.573h-13.409v-44.086h13.409c13.483,0,20.226,6.756,20.226,20.272&#10;&#9;C733,850.635,726.257,858.573,712.775,858.573z"/>
<polygon data-darkreader-inline-fill="" style="fill: rgb(255, 255, 255); --darkreader-inline-fill: #e8e6e3;" points="767.087,841.529 798.221,841.529 798.221,830.758 767.224,830.758 767.224,814.394 &#10;&#9;799.767,814.394 799.767,804.033 755.271,804.033 755.271,869.026 800.402,869.026 800.402,858.573 767.087,858.573"/>
<polygon data-darkreader-inline-fill="" style="fill: rgb(255, 255, 255); --darkreader-inline-fill: #e8e6e3;" points="846.398,804.033 833.446,804.033 805.856,869.026 818.219,869.026 839.625,816.441 &#10;&#9;849.852,840.846 836.763,840.846 832.627,851.299 854.216,851.299 861.624,869.026 874.577,869.026"/>
<g>
	<path data-darkreader-inline-fill="" style="fill: none; --darkreader-inline-fill: none;" d="M685.849,914.326c-0.645-0.772-1.421-1.359-2.331-1.764c-0.909-0.405-1.93-0.606-3.065-0.606&#10;&#9;&#9;c-1.133,0-2.154,0.201-3.063,0.606c-0.909,0.405-1.686,0.992-2.331,1.764c-0.646,0.769-1.144,1.704-1.496,2.801&#10;&#9;&#9;c-0.351,1.094-0.526,2.336-0.526,3.717c0,1.385,0.175,2.623,0.526,3.72c0.353,1.094,0.85,2.029,1.496,2.798&#10;&#9;&#9;c0.644,0.772,1.421,1.365,2.331,1.78c0.909,0.415,1.93,0.622,3.063,0.622c1.134,0,2.155-0.207,3.065-0.622&#10;&#9;&#9;c0.909-0.415,1.686-1.008,2.331-1.78c0.645-0.769,1.144-1.704,1.495-2.798c0.352-1.098,0.528-2.335,0.528-3.72&#10;&#9;&#9;c0-1.381-0.175-2.622-0.528-3.717C686.993,916.029,686.494,915.095,685.849,914.326z"/>
	<path data-darkreader-inline-fill="" style="fill: none; --darkreader-inline-fill: none;" d="M440.435,914.326c-0.644-0.772-1.421-1.359-2.331-1.764c-0.909-0.405-1.93-0.606-3.065-0.606&#10;&#9;&#9;c-1.133,0-2.154,0.201-3.063,0.606c-0.909,0.405-1.686,0.992-2.331,1.764c-0.646,0.769-1.144,1.704-1.496,2.801&#10;&#9;&#9;c-0.351,1.094-0.527,2.336-0.527,3.717c0,1.385,0.176,2.623,0.527,3.72c0.353,1.094,0.85,2.029,1.496,2.798&#10;&#9;&#9;c0.645,0.772,1.421,1.365,2.331,1.78c0.909,0.415,1.93,0.622,3.063,0.622c1.134,0,2.155-0.207,3.065-0.622&#10;&#9;&#9;c0.909-0.415,1.686-1.008,2.331-1.78c0.645-0.769,1.144-1.704,1.495-2.798c0.353-1.098,0.528-2.335,0.528-3.72&#10;&#9;&#9;c0-1.381-0.176-2.622-0.528-3.717C441.579,916.029,441.079,915.095,440.435,914.326z"/>
	<path data-darkreader-inline-fill="" style="fill: none; --darkreader-inline-fill: none;" d="M527.39,919.067c0.353-0.574,0.528-1.353,0.528-2.342c0-0.909-0.175-1.659-0.528-2.253&#10;&#9;&#9;c-0.351-0.59-0.81-1.059-1.378-1.407c-0.566-0.345-1.216-0.581-1.949-0.711c-0.732-0.128-1.49-0.192-2.272-0.192&#10;&#9;&#9;c-0.743,0-1.393,0.026-1.949,0.073c-0.557,0.051-1.023,0.096-1.393,0.134v8.742h2.755c0.919,0,1.788-0.045,2.61-0.134&#10;&#9;&#9;c0.822-0.089,1.535-0.287,2.141-0.593C526.559,920.078,527.039,919.641,527.39,919.067z"/>
	<path data-darkreader-inline-fill="" style="fill: none; --darkreader-inline-fill: none;" d="M559.974,912.903c-0.736,1.707-1.452,3.436-2.147,5.194c-0.697,1.755-1.418,3.65-2.165,5.682h8.673&#10;&#9;&#9;c-0.751-2.036-1.482-3.934-2.192-5.692C561.432,916.329,560.709,914.6,559.974,912.903z"/>
	<path data-darkreader-inline-fill="" style="fill: none; --darkreader-inline-fill: none;" d="M722.363,912.903c-0.736,1.707-1.452,3.436-2.147,5.194c-0.697,1.755-1.418,3.65-2.165,5.682h8.673&#10;&#9;&#9;c-0.751-2.036-1.482-3.934-2.192-5.692C723.821,916.329,723.098,914.6,722.363,912.903z"/>
	<path data-darkreader-inline-fill="" style="fill: none; --darkreader-inline-fill: none;" d="M481.83,919.067c0.352-0.574,0.528-1.353,0.528-2.342c0-0.909-0.176-1.659-0.528-2.253&#10;&#9;&#9;c-0.351-0.59-0.81-1.059-1.378-1.407c-0.566-0.345-1.215-0.581-1.949-0.711c-0.732-0.128-1.49-0.192-2.272-0.192&#10;&#9;&#9;c-0.743,0-1.393,0.026-1.949,0.073c-0.557,0.051-1.023,0.096-1.393,0.134v8.742h2.755c0.919,0,1.788-0.045,2.61-0.134&#10;&#9;&#9;c0.822-0.089,1.534-0.287,2.141-0.593C480.999,920.078,481.479,919.641,481.83,919.067z"/>
	<path data-darkreader-inline-fill="" style="fill: rgb(153, 153, 153); --darkreader-inline-fill: #a8a095;" d="M418.411,915.879c-1,1.79-2.018,3.494-3.056,5.114c-1.078-1.621-2.112-3.324-3.101-5.114&#10;&#9;&#9;c-0.989-1.787-1.897-3.548-2.718-5.287h-2.316c1,1.895,2.085,3.848,3.253,5.851c1.168,2.004,2.449,4.084,3.841,6.237v8.445h1.994&#10;&#9;&#9;v-8.506c1.348-2.093,2.599-4.151,3.752-6.177c1.153-2.026,2.248-3.975,3.285-5.851h-2.169&#10;&#9;&#9;C420.33,912.332,419.41,914.093,418.411,915.879z"/>
	<path data-darkreader-inline-fill="" style="fill: rgb(153, 153, 153); --darkreader-inline-fill: #a8a095;" d="M441.74,912.858c-0.871-0.9-1.882-1.576-3.034-2.029c-1.153-0.453-2.375-0.683-3.666-0.683&#10;&#9;&#9;c-1.289,0-2.511,0.23-3.664,0.683c-1.153,0.453-2.165,1.129-3.034,2.029c-0.87,0.9-1.559,2.016-2.068,3.35&#10;&#9;&#9;c-0.507,1.334-0.762,2.878-0.762,4.636s0.255,3.308,0.762,4.652c0.509,1.343,1.198,2.466,2.068,3.363&#10;&#9;&#9;c0.869,0.9,1.881,1.576,3.034,2.032c1.154,0.453,2.375,0.68,3.664,0.68c1.291,0,2.513-0.227,3.666-0.68&#10;&#9;&#9;c1.152-0.456,2.163-1.133,3.034-2.032c0.869-0.896,1.558-2.019,2.066-3.363c0.509-1.343,0.763-2.894,0.763-4.652&#10;&#9;&#9;s-0.254-3.302-0.763-4.636C443.298,914.875,442.609,913.758,441.74,912.858z M441.93,924.564c-0.351,1.094-0.85,2.029-1.495,2.798&#10;&#9;&#9;c-0.644,0.772-1.421,1.365-2.331,1.78c-0.909,0.415-1.93,0.622-3.065,0.622c-1.133,0-2.154-0.207-3.063-0.622&#10;&#9;&#9;c-0.909-0.415-1.686-1.008-2.331-1.78c-0.646-0.769-1.144-1.704-1.496-2.798c-0.351-1.098-0.527-2.335-0.527-3.72&#10;&#9;&#9;c0-1.381,0.176-2.622,0.527-3.717c0.353-1.097,0.85-2.032,1.496-2.801c0.645-0.772,1.421-1.359,2.331-1.764&#10;&#9;&#9;c0.909-0.405,1.93-0.606,3.063-0.606c1.134,0,2.155,0.201,3.065,0.606c0.909,0.405,1.686,0.992,2.331,1.764&#10;&#9;&#9;c0.645,0.769,1.144,1.704,1.495,2.801c0.353,1.094,0.528,2.336,0.528,3.717C442.458,922.229,442.282,923.466,441.93,924.564z"/>
	<path data-darkreader-inline-fill="" style="fill: rgb(153, 153, 153); --darkreader-inline-fill: #a8a095;" d="M462.746,923.243c0,1.126-0.132,2.099-0.397,2.919c-0.263,0.82-0.63,1.497-1.099,2.032&#10;&#9;&#9;c-0.469,0.533-1.035,0.928-1.701,1.184c-0.664,0.258-1.407,0.386-2.227,0.386c-0.822,0-1.565-0.128-2.228-0.386&#10;&#9;&#9;c-0.665-0.255-1.232-0.651-1.701-1.184c-0.469-0.536-0.836-1.212-1.099-2.032c-0.265-0.82-0.396-1.793-0.396-2.919v-12.65h-1.994&#10;&#9;&#9;v12.918c0,1.126,0.132,2.179,0.396,3.155c0.263,0.979,0.689,1.835,1.275,2.565c0.587,0.73,1.354,1.302,2.302,1.716&#10;&#9;&#9;c0.948,0.415,2.096,0.622,3.446,0.622c1.348,0,2.497-0.207,3.444-0.622c0.948-0.415,1.715-0.986,2.302-1.716&#10;&#9;&#9;c0.586-0.731,1.012-1.586,1.275-2.565c0.265-0.976,0.395-2.029,0.395-3.155v-12.918h-1.992V923.243z"/>
	<path data-darkreader-inline-fill="" style="fill: rgb(153, 153, 153); --darkreader-inline-fill: #a8a095;" d="M482.827,926.134c-0.528-0.801-1.04-1.534-1.539-2.208c-0.498-0.67-0.905-1.206-1.217-1.599&#10;&#9;&#9;c1.31-0.395,2.366-1.04,3.167-1.927c0.801-0.89,1.203-2.106,1.203-3.647c0-2.093-0.71-3.672-2.126-4.741&#10;&#9;&#9;c-1.417-1.066-3.522-1.598-6.317-1.598c-0.802,0-1.677,0.045-2.624,0.134c-0.948,0.089-1.774,0.233-2.477,0.428v20.151h1.994&#10;&#9;&#9;v-8.299h3.283c0.625,0,1.251-0.029,1.876-0.086c0.353,0.472,0.763,1.027,1.231,1.659c0.469,0.632,0.952,1.318,1.452,2.058&#10;&#9;&#9;c0.498,0.74,0.986,1.506,1.466,2.297c0.479,0.791,0.924,1.579,1.334,2.37h2.141c-0.353-0.791-0.783-1.621-1.291-2.489&#10;&#9;&#9;C483.872,927.767,483.355,926.934,482.827,926.134z M478.253,920.978c-0.822,0.089-1.691,0.134-2.61,0.134h-2.755v-8.742&#10;&#9;&#9;c0.37-0.038,0.836-0.083,1.393-0.134c0.557-0.048,1.206-0.073,1.949-0.073c0.782,0,1.539,0.064,2.272,0.192&#10;&#9;&#9;c0.734,0.131,1.383,0.367,1.949,0.711c0.568,0.348,1.027,0.817,1.378,1.407c0.352,0.594,0.528,1.343,0.528,2.253&#10;&#9;&#9;c0,0.989-0.176,1.767-0.528,2.342c-0.351,0.574-0.831,1.011-1.436,1.318C479.788,920.691,479.075,920.888,478.253,920.978z"/>
	<path data-darkreader-inline-fill="" style="fill: rgb(153, 153, 153); --darkreader-inline-fill: #a8a095;" d="M509.491,929.394c-0.869,0.246-1.949,0.37-3.24,0.37c-1.172,0-2.212-0.207-3.122-0.622&#10;&#9;&#9;c-0.909-0.415-1.677-1.008-2.302-1.78c-0.625-0.769-1.099-1.704-1.421-2.798c-0.322-1.098-0.483-2.326-0.483-3.691&#10;&#9;&#9;c0-1.321,0.161-2.527,0.483-3.615c0.322-1.085,0.806-2.023,1.452-2.814c0.645-0.791,1.44-1.404,2.388-1.838&#10;&#9;&#9;c0.949-0.434,2.058-0.651,3.328-0.651c1.115,0,2.048,0.144,2.8,0.431c0.753,0.284,1.374,0.578,1.862,0.874l0.646-1.748&#10;&#9;&#9;c-0.175-0.121-0.431-0.252-0.763-0.402c-0.333-0.147-0.732-0.297-1.203-0.443c-0.469-0.15-1.016-0.271-1.642-0.37&#10;&#9;&#9;c-0.625-0.099-1.319-0.15-2.082-0.15c-1.23,0-2.414,0.233-3.546,0.699c-1.134,0.463-2.131,1.148-2.991,2.058&#10;&#9;&#9;c-0.86,0.909-1.549,2.029-2.068,3.363c-0.517,1.334-0.777,2.859-0.777,4.578c0,1.72,0.239,3.245,0.72,4.578&#10;&#9;&#9;c0.479,1.334,1.133,2.457,1.964,3.363c0.831,0.909,1.807,1.602,2.932,2.074c1.123,0.475,2.34,0.711,3.65,0.711&#10;&#9;&#9;c0.822,0,1.563-0.045,2.229-0.131c0.664-0.089,1.251-0.204,1.758-0.341c0.509-0.14,0.928-0.271,1.262-0.402&#10;&#9;&#9;c0.332-0.128,0.566-0.239,0.703-0.338l-0.557-1.72C511.021,928.893,510.361,929.145,509.491,929.394z"/>
	<path data-darkreader-inline-fill="" style="fill: rgb(153, 153, 153); --darkreader-inline-fill: #a8a095;" d="M528.387,926.134c-0.528-0.801-1.04-1.534-1.539-2.208c-0.498-0.67-0.905-1.206-1.217-1.599&#10;&#9;&#9;c1.31-0.395,2.366-1.04,3.167-1.927c0.801-0.89,1.203-2.106,1.203-3.647c0-2.093-0.71-3.672-2.127-4.741&#10;&#9;&#9;c-1.417-1.066-3.522-1.598-6.317-1.598c-0.802,0-1.677,0.045-2.624,0.134c-0.947,0.089-1.774,0.233-2.477,0.428v20.151h1.994&#10;&#9;&#9;v-8.299h3.283c0.625,0,1.251-0.029,1.876-0.086c0.352,0.472,0.763,1.027,1.232,1.659c0.469,0.632,0.952,1.318,1.452,2.058&#10;&#9;&#9;c0.498,0.74,0.986,1.506,1.466,2.297c0.479,0.791,0.924,1.579,1.334,2.37h2.141c-0.353-0.791-0.783-1.621-1.291-2.489&#10;&#9;&#9;C529.432,927.767,528.915,926.934,528.387,926.134z M523.813,920.978c-0.822,0.089-1.691,0.134-2.61,0.134h-2.755v-8.742&#10;&#9;&#9;c0.37-0.038,0.836-0.083,1.393-0.134c0.557-0.048,1.206-0.073,1.949-0.073c0.782,0,1.539,0.064,2.272,0.192&#10;&#9;&#9;c0.734,0.131,1.383,0.367,1.949,0.711c0.568,0.348,1.027,0.817,1.378,1.407c0.353,0.594,0.528,1.343,0.528,2.253&#10;&#9;&#9;c0,0.989-0.175,1.767-0.528,2.342c-0.351,0.574-0.831,1.011-1.436,1.318C525.348,920.691,524.635,920.888,523.813,920.978z"/>
	<polygon data-darkreader-inline-fill="" style="fill: rgb(153, 153, 153); --darkreader-inline-fill: #a8a095;" points="537.534,921.201 546.212,921.201 546.212,919.482 537.534,919.482 537.534,912.341 &#10;&#9;&#9;547.266,912.341 547.266,910.593 535.54,910.593 535.54,931.127 548.029,931.127 548.029,929.378 537.534,929.378"/>
	<path data-darkreader-inline-fill="" style="fill: rgb(153, 153, 153); --darkreader-inline-fill: #a8a095;" d="M564.908,919.909c-0.662-1.646-1.315-3.232-1.957-4.754c-0.643-1.522-1.324-3.044-2.04-4.562h-1.758&#10;&#9;&#9;c-0.716,1.525-1.401,3.05-2.051,4.569c-0.649,1.519-1.305,3.101-1.965,4.747c-0.659,1.649-1.332,3.395-2.02,5.242&#10;&#9;&#9;c-0.686,1.847-1.415,3.838-2.185,5.976h2.082c0.362-1.002,0.705-1.972,1.029-2.903c0.325-0.932,0.657-1.841,0.995-2.728h9.926&#10;&#9;&#9;c0.297,0.884,0.608,1.79,0.935,2.722c0.325,0.932,0.681,1.901,1.069,2.91h2.2c-0.817-2.134-1.565-4.128-2.245-5.976&#10;&#9;&#9;C566.242,923.3,565.57,921.555,564.908,919.909z M555.662,923.779c0.747-2.032,1.468-3.927,2.165-5.682&#10;&#9;&#9;c0.695-1.758,1.412-3.487,2.147-5.194c0.735,1.697,1.458,3.427,2.169,5.185c0.71,1.758,1.44,3.656,2.192,5.692H555.662z"/>
	<polygon data-darkreader-inline-fill="" style="fill: rgb(153, 153, 153); --darkreader-inline-fill: #a8a095;" points="569.402,912.341 575.91,912.341 575.91,931.127 577.903,931.127 577.903,912.341 &#10;&#9;&#9;584.411,912.341 584.411,910.593 569.402,910.593"/>
	<rect data-darkreader-inline-fill="" x="588.545" y="910.593" style="fill: rgb(153, 153, 153); --darkreader-inline-fill: #a8a095;" width="1.994" height="20.534"/>
	<path data-darkreader-inline-fill="" style="fill: rgb(153, 153, 153); --darkreader-inline-fill: #a8a095;" d="M608.369,915.608c-0.542,1.576-1.083,3.101-1.624,4.572c-0.542,1.471-1.088,2.913-1.642,4.326&#10;&#9;&#9;c-0.554,1.417-1.133,2.83-1.739,4.25c-0.636-1.442-1.227-2.868-1.769-4.285c-0.542-1.413-1.078-2.855-1.608-4.326&#10;&#9;&#9;c-0.53-1.471-1.07-2.992-1.619-4.562c-0.55-1.57-1.117-3.232-1.702-4.99h-2.229c0.897,2.588,1.702,4.859,2.417,6.815&#10;&#9;&#9;c0.715,1.956,1.383,3.723,2.005,5.299c0.622,1.579,1.217,3.034,1.785,4.368c0.568,1.33,1.149,2.683,1.742,4.052h1.871&#10;&#9;&#9;c0.606-1.356,1.189-2.699,1.744-4.033c0.557-1.334,1.139-2.792,1.75-4.374c0.609-1.583,1.274-3.35,1.997-5.303&#10;&#9;&#9;c0.721-1.952,1.53-4.227,2.426-6.824h-2.114C609.474,912.357,608.909,914.029,608.369,915.608z"/>
	<polygon data-darkreader-inline-fill="" style="fill: rgb(153, 153, 153); --darkreader-inline-fill: #a8a095;" points="618.037,921.201 626.716,921.201 626.716,919.482 618.037,919.482 618.037,912.341 &#10;&#9;&#9;627.77,912.341 627.77,910.593 616.043,910.593 616.043,931.127 628.533,931.127 628.533,929.378 618.037,929.378"/>
	<path data-darkreader-inline-fill="" style="fill: rgb(153, 153, 153); --darkreader-inline-fill: #a8a095;" d="M650.668,921.941c-0.528-0.456-1.149-0.849-1.862-1.187c-0.715-0.335-1.472-0.67-2.273-1.005&#10;&#9;&#9;c-0.664-0.278-1.279-0.546-1.847-0.801c-0.566-0.258-1.059-0.542-1.48-0.861c-0.419-0.316-0.747-0.689-0.981-1.126&#10;&#9;&#9;c-0.234-0.434-0.352-0.967-0.352-1.599c0-0.613,0.112-1.136,0.337-1.57s0.533-0.794,0.924-1.081&#10;&#9;&#9;c0.391-0.287,0.855-0.495,1.393-0.622c0.538-0.131,1.129-0.195,1.774-0.195c0.938,0,1.814,0.118,2.624,0.358&#10;&#9;&#9;c0.81,0.236,1.5,0.552,2.068,0.948l0.703-1.688c-0.255-0.179-0.573-0.348-0.952-0.504c-0.381-0.16-0.802-0.303-1.262-0.431&#10;&#9;&#9;s-0.952-0.233-1.48-0.313c-0.528-0.077-1.066-0.118-1.613-0.118c-2.052,0-3.655,0.456-4.808,1.366&#10;&#9;&#9;c-1.153,0.906-1.729,2.24-1.729,3.998c0,0.772,0.121,1.442,0.367,2.016c0.244,0.574,0.602,1.081,1.07,1.525&#10;&#9;&#9;c0.469,0.447,1.035,0.845,1.699,1.196c0.665,0.354,1.418,0.699,2.259,1.031c0.664,0.278,1.299,0.536,1.905,0.782&#10;&#9;&#9;c0.606,0.246,1.144,0.542,1.613,0.887c0.469,0.348,0.845,0.775,1.129,1.279c0.282,0.504,0.424,1.133,0.424,1.886&#10;&#9;&#9;c0,1.305-0.44,2.252-1.319,2.836c-0.879,0.584-2.111,0.874-3.695,0.874c-0.684,0-1.31-0.048-1.876-0.147&#10;&#9;&#9;c-0.566-0.099-1.075-0.223-1.523-0.37c-0.45-0.15-0.841-0.303-1.174-0.459c-0.332-0.16-0.595-0.297-0.791-0.415l-0.645,1.748&#10;&#9;&#9;c0.195,0.118,0.469,0.255,0.82,0.415c0.353,0.156,0.782,0.31,1.291,0.459c0.509,0.147,1.085,0.271,1.729,0.37&#10;&#9;&#9;c0.646,0.099,1.359,0.147,2.141,0.147c2.189,0,3.924-0.463,5.204-1.391c1.279-0.929,1.921-2.323,1.921-4.18&#10;&#9;&#9;c0-0.947-0.156-1.748-0.469-2.399C651.616,922.95,651.194,922.394,650.668,921.941z"/>
	<polygon data-darkreader-inline-fill="" style="fill: rgb(153, 153, 153); --darkreader-inline-fill: #a8a095;" points="659.053,910.593 657.058,910.593 657.058,931.127 668.61,931.127 668.61,929.378 &#10;&#9;&#9;659.053,929.378"/>
	<path data-darkreader-inline-fill="" style="fill: rgb(153, 153, 153); --darkreader-inline-fill: #a8a095;" d="M687.154,912.858c-0.871-0.9-1.882-1.576-3.034-2.029c-1.153-0.453-2.375-0.683-3.666-0.683&#10;&#9;&#9;c-1.289,0-2.511,0.23-3.664,0.683c-1.153,0.453-2.165,1.129-3.034,2.029c-0.869,0.9-1.559,2.016-2.067,3.35&#10;&#9;&#9;c-0.507,1.334-0.763,2.878-0.763,4.636s0.255,3.308,0.763,4.652c0.509,1.343,1.198,2.466,2.067,3.363&#10;&#9;&#9;c0.869,0.9,1.881,1.576,3.034,2.032c1.153,0.453,2.375,0.68,3.664,0.68c1.291,0,2.513-0.227,3.666-0.68&#10;&#9;&#9;c1.152-0.456,2.163-1.133,3.034-2.032c0.869-0.896,1.558-2.019,2.066-3.363c0.509-1.343,0.762-2.894,0.762-4.652&#10;&#9;&#9;s-0.254-3.302-0.762-4.636C688.713,914.875,688.024,913.758,687.154,912.858z M687.344,924.564&#10;&#9;&#9;c-0.351,1.094-0.85,2.029-1.495,2.798c-0.645,0.772-1.421,1.365-2.331,1.78c-0.909,0.415-1.93,0.622-3.065,0.622&#10;&#9;&#9;c-1.133,0-2.154-0.207-3.063-0.622c-0.909-0.415-1.686-1.008-2.331-1.78c-0.646-0.769-1.144-1.704-1.496-2.798&#10;&#9;&#9;c-0.351-1.098-0.526-2.335-0.526-3.72c0-1.381,0.175-2.622,0.526-3.717c0.353-1.097,0.85-2.032,1.496-2.801&#10;&#9;&#9;c0.644-0.772,1.421-1.359,2.331-1.764c0.909-0.405,1.93-0.606,3.063-0.606c1.134,0,2.155,0.201,3.065,0.606&#10;&#9;&#9;c0.909,0.405,1.686,0.992,2.331,1.764c0.645,0.769,1.144,1.704,1.495,2.801c0.352,1.094,0.528,2.336,0.528,3.717&#10;&#9;&#9;C687.872,922.229,687.697,923.466,687.344,924.564z"/>
	<path data-darkreader-inline-fill="" style="fill: rgb(153, 153, 153); --darkreader-inline-fill: #a8a095;" d="M708.071,929.289c-0.235,0.099-0.689,0.204-1.362,0.313c-0.675,0.109-1.511,0.163-2.508,0.163&#10;&#9;&#9;c-1.23,0-2.315-0.207-3.254-0.622c-0.938-0.415-1.724-1.015-2.359-1.793c-0.635-0.782-1.109-1.72-1.421-2.817&#10;&#9;&#9;c-0.313-1.094-0.469-2.326-0.469-3.688c0-1.461,0.19-2.744,0.571-3.851c0.381-1.107,0.905-2.035,1.568-2.785&#10;&#9;&#9;c0.665-0.753,1.447-1.314,2.346-1.691c0.898-0.373,1.855-0.562,2.873-0.562c1.094,0,2.111,0.124,3.049,0.37&#10;&#9;&#9;c0.938,0.246,1.68,0.568,2.228,0.964l0.673-1.72c-0.45-0.297-1.163-0.606-2.139-0.932c-0.978-0.329-2.219-0.491-3.723-0.491&#10;&#9;&#9;c-1.31,0-2.541,0.239-3.695,0.711c-1.153,0.475-2.165,1.161-3.034,2.061c-0.869,0.9-1.559,2.013-2.067,3.347&#10;&#9;&#9;c-0.507,1.334-0.763,2.859-0.763,4.578c0,1.72,0.234,3.245,0.705,4.578c0.469,1.334,1.118,2.45,1.949,3.35&#10;&#9;&#9;c0.83,0.897,1.812,1.586,2.946,2.058c1.133,0.475,2.364,0.711,3.693,0.711c1.584,0,2.918-0.125,4.002-0.37&#10;&#9;&#9;c1.085-0.246,1.812-0.45,2.184-0.606v-9.157h-1.994V929.289z"/>
	<path data-darkreader-inline-fill="" style="fill: rgb(153, 153, 153); --darkreader-inline-fill: #a8a095;" d="M727.297,919.909c-0.662-1.646-1.315-3.232-1.957-4.754c-0.643-1.522-1.324-3.044-2.04-4.562h-1.758&#10;&#9;&#9;c-0.716,1.525-1.401,3.05-2.052,4.569c-0.649,1.519-1.305,3.101-1.965,4.747c-0.659,1.649-1.332,3.395-2.02,5.242&#10;&#9;&#9;c-0.686,1.847-1.415,3.838-2.185,5.976h2.082c0.362-1.002,0.705-1.972,1.029-2.903c0.325-0.932,0.657-1.841,0.995-2.728h9.926&#10;&#9;&#9;c0.297,0.884,0.608,1.79,0.935,2.722c0.326,0.932,0.681,1.901,1.069,2.91h2.2c-0.817-2.134-1.565-4.128-2.245-5.976&#10;&#9;&#9;C728.63,923.3,727.959,921.555,727.297,919.909z M718.051,923.779c0.746-2.032,1.468-3.927,2.165-5.682&#10;&#9;&#9;c0.696-1.758,1.412-3.487,2.147-5.194c0.735,1.697,1.458,3.427,2.169,5.185c0.71,1.758,1.44,3.656,2.192,5.692H718.051z"/>
	<path data-darkreader-inline-fill="" style="fill: rgb(153, 153, 153); --darkreader-inline-fill: #a8a095;" d="M748.968,927.305c-0.609-1.085-1.388-2.358-2.336-3.819c-0.949-1.461-1.972-2.958-3.068-4.486&#10;&#9;&#9;c-1.096-1.531-2.213-3.034-3.352-4.508c-1.141-1.474-2.209-2.776-3.208-3.899h-1.583v20.534h1.964v-17.299&#10;&#9;&#9;c0.558,0.673,1.195,1.474,1.913,2.399c0.719,0.925,1.453,1.917,2.203,2.977c0.751,1.056,1.504,2.147,2.262,3.267&#10;&#9;&#9;c0.756,1.12,1.482,2.202,2.179,3.251c0.696,1.05,1.329,2.039,1.898,2.974c0.57,0.935,1.042,1.745,1.42,2.431h1.67v-20.534h-1.964&#10;&#9;&#9;V927.305z"/>
</g>
<path data-darkreader-inline-fill="" style="fill: rgb(54, 159, 210); --darkreader-inline-fill: #49a8d6;" d="M559.661,614.881h102.926v0.239h0.064l57.789,60.003h39.223v23.306h78.903v-76.212h-78.903v25.997&#10;&#9;h-27.779l-57.789-60.004h-23.561c5.492-11.845,12.021-23.2,18.226-35.893h-70.754v-0.593H359.495&#10;&#9;c1.296,0.548,2.773,1.057,4.441,1.539c17.839,5.156,23.145,14.489,18.747,24.376c-4.4,9.886-4.547,16.986,5.826,19.216l5.005,2.926&#10;&#9;c0,0-9.286,9.089-8.31,15.249h174.457V614.881z M783.881,646.436h30.467v30.467h-30.467V646.436z"/>
<path data-darkreader-inline-fill="" style="fill: rgb(217, 101, 112); --darkreader-inline-fill: #da6a75;" d="M389.634,619.557c12.071,4.178,15.462,8.079,12.226,17.686c-3.238,9.609-8.428,36.763,21.91,32.453&#10;&#9;c0,0,14.094-2.785,39.644-6.54c21.657-3.182,31.974,19.068,38.096,44.83c0.142,0.596,0.37,1.148,0.566,1.717&#10;&#9;c40.664,0.735,102.976-2.994,151.705-27.411c-8.672-14.85-14.37-30.283-15.61-45.21h-78.511v-22.05H385.204&#10;&#9;C385.506,616.939,386.781,618.569,389.634,619.557z"/>
<path data-darkreader-inline-fill="" style="fill: rgb(66, 133, 244); --darkreader-inline-fill: #4ba0f4;" d="M582.645,377.635h125.848l45.524-39.124h58.507v25.997h78.902v-78.903h-78.902v25.997h-68.482&#10;&#9;l-45.716,39.288h-47.43c-69.004-69.347-206.633-58.724-250.537,27.463h182.287V377.635z M836.742,309.824h30.467v30.467h-30.467&#10;&#9;V309.824z"/>
<path data-darkreader-inline-fill="" style="fill: rgb(217, 101, 112); --darkreader-inline-fill: #da6a75;" d="M524.343,454.662h170.198v0.036h65.122v26.588h78.903v-78.903h-78.903v25.406h-70.559&#10;&#9;c-1.564-9.936-4.009-19.241-7.188-27.954h-99.271v-21.481H400.359c-10.806,21.213-15.922,47.007-12.949,77.311h136.934V454.662z&#10;&#9; M783.881,426.601h30.467v30.467h-30.467V426.601z"/>
<path data-darkreader-inline-fill="" style="fill: rgb(110, 168, 115); --darkreader-inline-fill: #7aaf7e;" d="M598.006,530.118h143.289v0.131h13.28l30.701,40.635h72.994v24.249h78.903v-80.248h-78.903v29.09&#10;&#9;h-59.6l-30.701-40.634h-81.793c1.737-8.076,3.093-16.855,3.958-26.479h-165.79v-21.196H387.409c0.055,0.56,0.086,1.107,0.146,1.67&#10;&#9;c0,0,3.029,24.772-19.93,57.355c-16.055,22.783-20.694,31.721-8.13,37.035h238.511V530.118z M882.487,539.103h30.467v30.467h-30.467&#10;&#9;V539.103z"/>
</svg>